<svg width="25" height="25" viewBox="0 0 25 25" fill="none" xmlns="http://www.w3.org/2000/svg" focusable="false">
<path d="M12.5 25C19.4036 25 25 19.4036 25 12.5C25 5.59644 19.4036 0 12.5 0C5.59644 0 0 5.59644 0 12.5C0 19.4036 5.59644 25 12.5 25Z"/>
<path d="M18.1253 16.2847L15.5878 13.7472L17.398 12.7015C17.5395 12.6197 17.6219 12.4644 17.61 12.3015C17.5984 12.1385 17.4945 11.9966 17.3428 11.9361L9.26996 8.71593C9.11167 8.65273 8.93099 8.68996 8.81048 8.81043C8.68997 8.93098 8.65275 9.11165 8.71591 9.26991L11.9356 17.3436C11.9962 17.4954 12.1381 17.5991 12.301 17.6109C12.464 17.6227 12.6193 17.5404 12.701 17.3989L13.7465 15.5885L16.284 18.1262C16.364 18.2062 16.4725 18.2511 16.5855 18.2511C16.6986 18.2511 16.807 18.2062 16.887 18.1262L18.1253 16.8879C18.2918 16.7212 18.2918 16.4514 18.1253 16.2847ZM16.5855 17.2217L13.9568 14.5927C13.8763 14.5121 13.7675 14.4677 13.6553 14.4677C13.6368 14.4677 13.6181 14.469 13.5996 14.4715C13.4681 14.4887 13.3523 14.5661 13.286 14.681L12.4022 16.2112L9.87566 9.87582L16.2104 12.4027L14.68 13.2866C14.5653 13.3529 14.4878 13.4689 14.4705 13.6004C14.4533 13.7317 14.498 13.8636 14.5918 13.9575L17.2206 16.5865L16.5855 17.2217Z" fill="white"/>
<path d="M7.37257 6.76739C7.20598 6.60097 6.93611 6.60097 6.76944 6.76739C6.60289 6.93396 6.60289 7.20393 6.76944 7.37051L7.71693 8.318C7.80018 8.40121 7.90936 8.4429 8.01849 8.4429C8.12758 8.4429 8.23668 8.40121 8.32002 8.318C8.48651 8.15146 8.48651 7.88146 8.32002 7.71492L7.37257 6.76739Z" fill="white"/>
<path d="M7.69286 9.71544C7.69286 9.47995 7.5019 9.28906 7.26641 9.28906H5.92646C5.69101 9.28906 5.5 9.4799 5.5 9.71544C5.5 9.95087 5.69097 10.1418 5.92646 10.1418H7.26641C7.5019 10.1418 7.69286 9.95087 7.69286 9.71544Z" fill="white"/>
<path d="M7.51978 11.0321L6.57221 11.9797C6.40562 12.1461 6.40562 12.4161 6.57221 12.5826C6.65546 12.6659 6.76451 12.7076 6.87372 12.7076C6.98282 12.7076 7.09191 12.6659 7.17516 12.5826L8.12278 11.6351C8.28932 11.4686 8.28932 11.1986 8.12278 11.0321C7.95633 10.8656 7.68637 10.8656 7.51978 11.0321Z" fill="white"/>
<path d="M9.71542 7.69197C9.95087 7.69197 10.1418 7.50101 10.1418 7.26552V5.92544C10.1418 5.69 9.95091 5.49902 9.71542 5.49902C9.47994 5.49902 9.28906 5.68995 9.28906 5.92544V7.26556C9.28906 7.50101 9.4799 7.69197 9.71542 7.69197Z" fill="white"/>
<path d="M11.3346 8.24658C11.4438 8.24658 11.5529 8.20502 11.6362 8.12173L12.5836 7.17423C12.7501 7.00769 12.7501 6.73769 12.5836 6.57119C12.4171 6.40465 12.147 6.40465 11.9806 6.57119L11.0331 7.51869C10.8666 7.68518 10.8666 7.95523 11.0331 8.12173C11.1164 8.20502 11.2255 8.24658 11.3346 8.24658Z" fill="white"/>
</svg>
