<svg width="25" height="25" viewBox="0 0 25 25" fill="none" xmlns="http://www.w3.org/2000/svg" focusable="false">
<path d="M12.5 25C19.4036 25 25 19.4036 25 12.5C25 5.59644 19.4036 0 12.5 0C5.59644 0 0 5.59644 0 12.5C0 19.4036 5.59644 25 12.5 25Z"/>
<path d="M20.5058 11.483C20.4568 11.3786 20.352 11.3118 20.2361 11.3118H19.3551C18.7951 8.27238 16.1263 5.96191 12.9273 5.96191C9.32212 5.96191 6.38867 8.89536 6.38867 12.5005C6.38867 16.1058 9.32182 19.0389 12.9273 19.0389C15.254 19.0389 17.4239 17.7866 18.5901 15.7714C18.7545 15.487 18.6575 15.1238 18.3729 14.9591C18.0888 14.7945 17.7253 14.8914 17.5611 15.1758C16.6065 16.8254 14.8309 17.8504 12.9273 17.8504C9.97761 17.8504 7.57746 15.4505 7.57746 12.5011C7.57746 9.55115 9.97761 7.1513 12.9273 7.1513C15.468 7.1513 17.5966 8.93329 18.139 11.3121H17.265C17.1491 11.3121 17.0448 11.3789 16.9954 11.4833C16.9463 11.5878 16.9623 11.7108 17.0363 11.7996L18.5224 13.5828C18.579 13.6505 18.6624 13.6896 18.7509 13.6896C18.839 13.6896 18.9228 13.6503 18.979 13.5828L20.4651 11.7996C20.5391 11.7105 20.5548 11.5875 20.5058 11.483Z" fill="white"/>
<path d="M12.9268 7.44727C12.5984 7.44727 12.3324 7.71332 12.3324 8.04165V11.6484C12.0637 11.8368 11.8867 12.1473 11.8867 12.5001C11.8867 13.0738 12.3535 13.5405 12.9272 13.5405C13.0842 13.5405 13.2323 13.5029 13.3659 13.44L15.4336 14.6333C15.5274 14.6878 15.6292 14.7134 15.7303 14.7134C15.9356 14.7134 16.1353 14.6068 16.2456 14.416C16.4096 14.1321 16.3123 13.7683 16.0276 13.6043L13.9579 12.4092C13.9302 12.095 13.7668 11.8205 13.5218 11.649V8.04165C13.5212 7.71362 13.2549 7.44727 12.9268 7.44727ZM12.9268 12.9455C12.6809 12.9455 12.4811 12.7454 12.4811 12.5001C12.4811 12.2545 12.6813 12.0543 12.9268 12.0543C13.1724 12.0543 13.3726 12.2545 13.3726 12.5001C13.3726 12.7454 13.1724 12.9455 12.9268 12.9455Z" fill="white"/>
</svg>
